<svg width="16" height="16" viewBox="0 0 16 16" fill="none" xmlns="http://www.w3.org/2000/svg">
<path d="M14.6473 12.2199C14.6473 12.4599 14.594 12.7066 14.4806 12.9466C14.3673 13.1866 14.2207 13.4133 14.0273 13.6266C13.7007 13.9866 13.3407 14.2466 12.934 14.4133C12.534 14.5799 12.1007 14.6666 11.634 14.6666C10.954 14.6666 10.2273 14.5066 9.46065 14.1799C8.69398 13.8533 7.92732 13.4133 7.16732 12.8599C6.40065 12.2999 5.67398 11.6799 4.98065 10.9933C4.29398 10.2999 3.67398 9.57325 3.12065 8.81325C2.57398 8.05325 2.13398 7.29325 1.81398 6.53992C1.49398 5.77992 1.33398 5.05325 1.33398 4.35992C1.33398 3.90659 1.41398 3.47325 1.57398 3.07325C1.73398 2.66659 1.98732 2.29325 2.34065 1.95992C2.76732 1.53992 3.23398 1.33325 3.72732 1.33325C3.91398 1.33325 4.10065 1.37325 4.26732 1.45325C4.44065 1.53325 4.59398 1.65325 4.71398 1.82659L6.26065 4.00659C6.38065 4.17325 6.46732 4.32659 6.52732 4.47325C6.58732 4.61325 6.62065 4.75325 6.62065 4.87992C6.62065 5.03992 6.57398 5.19992 6.48065 5.35325C6.39398 5.50658 6.26732 5.66658 6.10732 5.82658L5.60065 6.35325C5.52732 6.42658 5.49398 6.51325 5.49398 6.61992C5.49398 6.67325 5.50065 6.71992 5.51398 6.77325C5.53398 6.82658 5.55398 6.86658 5.56732 6.90658C5.68732 7.12658 5.89398 7.41325 6.18732 7.75992C6.48732 8.10659 6.80732 8.45992 7.15398 8.81325C7.51398 9.16658 7.86065 9.49325 8.21398 9.79325C8.56065 10.0866 8.84732 10.2866 9.07398 10.4066C9.10732 10.4199 9.14732 10.4399 9.19398 10.4599C9.24732 10.4799 9.30065 10.4866 9.36065 10.4866C9.47398 10.4866 9.56065 10.4466 9.63398 10.3733L10.1407 9.87325C10.3073 9.70659 10.4673 9.57992 10.6207 9.49992C10.774 9.40658 10.9273 9.35992 11.094 9.35992C11.2207 9.35992 11.354 9.38658 11.5007 9.44658C11.6473 9.50658 11.8007 9.59325 11.9673 9.70659L14.174 11.2733C14.3473 11.3933 14.4673 11.5333 14.5406 11.6999C14.6073 11.8666 14.6473 12.0333 14.6473 12.2199Z" stroke="#A1A9B8" stroke-width="1.5" stroke-miterlimit="10"/>
</svg>
