<svg width="18" height="16" viewBox="0 0 18 16" fill="none" xmlns="http://www.w3.org/2000/svg">
<path d="M3 12.9H15V13.95C15 14.2533 15.0942 14.5044 15.2827 14.7032C15.472 14.9011 15.7111 15 16 15C16.2889 15 16.528 14.9011 16.7173 14.7032C16.9058 14.5044 17 14.2533 17 13.95V9.19C17 8.49 16.8164 7.8656 16.4493 7.3168C16.0831 6.76893 15.6 6.36667 15 6.11V3.8C15 3.03 14.7391 2.3706 14.2173 1.8218C13.6947 1.27393 13.0667 1 12.3333 1H5.66667C4.93333 1 4.30578 1.27393 3.784 1.8218C3.26133 2.3706 3 3.03 3 3.8V6.11C2.4 6.36667 1.91644 6.76893 1.54933 7.3168C1.18311 7.8656 1 8.49 1 9.19V13.95C1 14.2533 1.09467 14.5044 1.284 14.7032C1.47244 14.9011 1.71111 15 2 15C2.28889 15 2.52756 14.9011 2.716 14.7032C2.90533 14.5044 3 14.2533 3 13.95V12.9ZM5 5.9V3.1H13V5.9H5ZM3 10.8V9.19C3 8.86333 3.11111 8.58333 3.33333 8.35C3.55556 8.11667 3.82222 8 4.13333 8H13.8667C14.1778 8 14.4444 8.11667 14.6667 8.35C14.8889 8.58333 15 8.86333 15 9.19V10.8H3Z" fill="#A1A9B8" stroke="white" stroke-width="0.4"/>
</svg>
