<svg width="20" height="20" viewBox="0 0 20 20" fill="none" xmlns="http://www.w3.org/2000/svg">
<g filter="url(#filter0_b_101_875)">
<rect width="20" height="20" rx="3" fill="#323232" fill-opacity="0.3"/>
</g>
<path d="M7.67578 4.20312H4.64062C4.39863 4.20312 4.20312 4.39863 4.20312 4.64062V7.70312C4.20312 7.82344 4.30156 7.92188 4.42188 7.92188H5.07812C5.19844 7.92188 5.29688 7.82344 5.29688 7.70312V5.29688H7.67578C7.79609 5.29688 7.89453 5.19844 7.89453 5.07812V4.42188C7.89453 4.30156 7.79609 4.20312 7.67578 4.20312ZM15.5781 12.0781H14.9219C14.8016 12.0781 14.7031 12.1766 14.7031 12.2969V14.7031H12.3242C12.2039 14.7031 12.1055 14.8016 12.1055 14.9219V15.5781C12.1055 15.6984 12.2039 15.7969 12.3242 15.7969H15.3594C15.6014 15.7969 15.7969 15.6014 15.7969 15.3594V12.2969C15.7969 12.1766 15.6984 12.0781 15.5781 12.0781ZM7.67578 14.7031H5.29688V12.2969C5.29688 12.1766 5.19844 12.0781 5.07812 12.0781H4.42188C4.30156 12.0781 4.20312 12.1766 4.20312 12.2969V15.3594C4.20312 15.6014 4.39863 15.7969 4.64062 15.7969H7.67578C7.79609 15.7969 7.89453 15.6984 7.89453 15.5781V14.9219C7.89453 14.8016 7.79609 14.7031 7.67578 14.7031ZM15.3594 4.20312H12.3242C12.2039 4.20312 12.1055 4.30156 12.1055 4.42188V5.07812C12.1055 5.19844 12.2039 5.29688 12.3242 5.29688H14.7031V7.70312C14.7031 7.82344 14.8016 7.92188 14.9219 7.92188H15.5781C15.6984 7.92188 15.7969 7.82344 15.7969 7.70312V4.64062C15.7969 4.39863 15.6014 4.20312 15.3594 4.20312Z" fill="white"/>
<defs>
<filter id="filter0_b_101_875" x="-4" y="-4" width="28" height="28" filterUnits="userSpaceOnUse" color-interpolation-filters="sRGB">
<feFlood flood-opacity="0" result="BackgroundImageFix"/>
<feGaussianBlur in="BackgroundImage" stdDeviation="2"/>
<feComposite in2="SourceAlpha" operator="in" result="effect1_backgroundBlur_101_875"/>
<feBlend mode="normal" in="SourceGraphic" in2="effect1_backgroundBlur_101_875" result="shape"/>
</filter>
</defs>
</svg>
