<svg width="15" height="18" viewBox="0 0 15 18" fill="none" xmlns="http://www.w3.org/2000/svg">
<path d="M7.5 1C9.22391 1 10.8772 1.69376 12.0962 2.92867C13.3152 4.16358 14 5.83848 14 7.58491C14 10.3674 12.07 13.3999 8.26 16.7146C8.04815 16.899 7.77804 17.0002 7.49875 17C7.21947 16.9998 6.94953 16.898 6.738 16.7133L6.486 16.4917C2.84467 13.2635 1 10.3053 1 7.58491C1 5.83848 1.68482 4.16358 2.90381 2.92867C4.12279 1.69376 5.77609 1 7.5 1ZM7.5 2.01306C6.04131 2.01306 4.64236 2.60009 3.61091 3.64502C2.57946 4.68994 2 6.10716 2 7.58491C2 9.95007 3.69867 12.6752 7.14267 15.7279L7.39133 15.946C7.42157 15.9724 7.46012 15.9869 7.5 15.9869C7.53988 15.9869 7.57843 15.9724 7.60867 15.946C11.2193 12.8042 13 10.0061 13 7.58491C13 6.8532 12.8577 6.12866 12.5813 5.45265C12.3049 4.77665 11.8998 4.16241 11.3891 3.64502C10.8784 3.12762 10.272 2.71721 9.60476 2.43719C8.93747 2.15718 8.22227 2.01306 7.5 2.01306ZM7.5 5.05225C8.16304 5.05225 8.79893 5.31908 9.26777 5.79405C9.73661 6.26901 10 6.9132 10 7.58491C10 8.25661 9.73661 8.9008 9.26777 9.37576C8.79893 9.85073 8.16304 10.1176 7.5 10.1176C6.83696 10.1176 6.20107 9.85073 5.73223 9.37576C5.26339 8.9008 5 8.25661 5 7.58491C5 6.9132 5.26339 6.26901 5.73223 5.79405C6.20107 5.31908 6.83696 5.05225 7.5 5.05225ZM7.5 6.06531C7.10218 6.06531 6.72064 6.22541 6.43934 6.51039C6.15804 6.79537 6 7.18188 6 7.58491C6 7.98793 6.15804 8.37444 6.43934 8.65942C6.72064 8.9444 7.10218 9.1045 7.5 9.1045C7.89782 9.1045 8.27936 8.9444 8.56066 8.65942C8.84196 8.37444 9 7.98793 9 7.58491C9 7.18188 8.84196 6.79537 8.56066 6.51039C8.27936 6.22541 7.89782 6.06531 7.5 6.06531Z" fill="#A1A9B8" stroke="#A1A9B8" stroke-width="0.3"/>
</svg>
