<svg width="48" height="36" viewBox="0 0 48 36" fill="none" xmlns="http://www.w3.org/2000/svg">
<g filter="url(#filter0_d_101_659)">
<mask id="path-1-outside-1_101_659" maskUnits="userSpaceOnUse" x="4.9668" y="3" width="38" height="27" fill="black">
<rect fill="white" x="4.9668" y="3" width="38" height="27"/>
<path fill-rule="evenodd" clip-rule="evenodd" d="M13.1607 5C9.73991 5 6.9668 7.77311 6.9668 11.1939V17.3878C6.9668 20.8087 9.73991 23.5818 13.1607 23.5818H19.3546C19.3546 23.5818 19.3547 23.5818 19.3546 23.5818V23.5818C19.3546 23.5818 19.3546 23.5818 19.3546 23.5818L22.9052 27.1324C23.5099 27.7371 24.4903 27.7371 25.0951 27.1324L28.6456 23.5818C28.6456 23.5818 28.6456 23.5818 28.6456 23.5818V23.5818C28.6456 23.5818 28.6456 23.5818 28.6456 23.5818H34.8395C38.2603 23.5818 41.0334 20.8087 41.0334 17.3879V11.1939C41.0334 7.77311 38.2603 5 34.8395 5H13.1607Z"/>
</mask>
<path fill-rule="evenodd" clip-rule="evenodd" d="M13.1607 5C9.73991 5 6.9668 7.77311 6.9668 11.1939V17.3878C6.9668 20.8087 9.73991 23.5818 13.1607 23.5818H19.3546C19.3546 23.5818 19.3547 23.5818 19.3546 23.5818V23.5818C19.3546 23.5818 19.3546 23.5818 19.3546 23.5818L22.9052 27.1324C23.5099 27.7371 24.4903 27.7371 25.0951 27.1324L28.6456 23.5818C28.6456 23.5818 28.6456 23.5818 28.6456 23.5818V23.5818C28.6456 23.5818 28.6456 23.5818 28.6456 23.5818H34.8395C38.2603 23.5818 41.0334 20.8087 41.0334 17.3879V11.1939C41.0334 7.77311 38.2603 5 34.8395 5H13.1607Z" fill="white"/>
<path d="M19.3546 23.5818L18.2597 24.6768L19.3546 23.5818ZM8.51528 11.1939C8.51528 8.62831 10.5951 6.54848 13.1607 6.54848V3.45152C8.88471 3.45152 5.41832 6.91791 5.41832 11.1939H8.51528ZM8.51528 17.3878V11.1939H5.41832V17.3878H8.51528ZM13.1607 22.0333C10.5951 22.0333 8.51528 19.9535 8.51528 17.3878H5.41832C5.41832 21.6639 8.88471 25.1303 13.1607 25.1303V22.0333ZM19.3546 22.0333H13.1607V25.1303H19.3546V22.0333ZM24.0001 26.0374L20.4496 22.4869L18.2597 24.6768L21.8102 28.2273L24.0001 26.0374ZM27.5507 22.4869L24.0001 26.0374L26.19 28.2273L29.7405 24.6768L27.5507 22.4869ZM34.8395 22.0333H28.6456V25.1303H34.8395V22.0333ZM39.4849 17.3879C39.4849 19.9535 37.4051 22.0333 34.8395 22.0333V25.1303C39.1155 25.1303 42.5819 21.6639 42.5819 17.3879H39.4849ZM39.4849 11.1939V17.3879H42.5819V11.1939H39.4849ZM34.8395 6.54848C37.4051 6.54848 39.4849 8.62832 39.4849 11.1939H42.5819C42.5819 6.91791 39.1155 3.45152 34.8395 3.45152V6.54848ZM13.1607 6.54848H34.8395V3.45152H13.1607V6.54848ZM29.7405 22.4869C30.7293 23.4756 30.0063 25.1303 28.6456 25.1303V22.0333C27.2849 22.0333 26.5619 23.688 27.5507 24.6768L29.7405 22.4869ZM29.7405 24.6768C30.3453 24.0721 30.3453 23.0916 29.7405 22.4869L27.5507 24.6768C26.946 24.072 26.946 23.0916 27.5507 22.4869L29.7405 24.6768ZM21.8102 28.2273C23.0197 29.4368 24.9806 29.4368 26.19 28.2273L24.0001 26.0374L21.8102 28.2273ZM18.2597 22.4869C17.6675 23.0791 17.6425 24.0596 18.2597 24.6768L20.4496 22.4869C21.0667 23.1041 21.0418 24.0846 20.4496 24.6768L18.2597 22.4869ZM19.3546 25.1303C17.9751 25.1303 17.2842 23.4623 18.2597 22.4869L20.4496 24.6768C21.4251 23.7013 20.7342 22.0333 19.3546 22.0333V25.1303Z" fill="white" mask="url(#path-1-outside-1_101_659)"/>
<path d="M19.3546 23.5818L18.2597 24.6768L19.3546 23.5818ZM8.51528 11.1939C8.51528 8.62831 10.5951 6.54848 13.1607 6.54848V3.45152C8.88471 3.45152 5.41832 6.91791 5.41832 11.1939H8.51528ZM8.51528 17.3878V11.1939H5.41832V17.3878H8.51528ZM13.1607 22.0333C10.5951 22.0333 8.51528 19.9535 8.51528 17.3878H5.41832C5.41832 21.6639 8.88471 25.1303 13.1607 25.1303V22.0333ZM19.3546 22.0333H13.1607V25.1303H19.3546V22.0333ZM24.0001 26.0374L20.4496 22.4869L18.2597 24.6768L21.8102 28.2273L24.0001 26.0374ZM27.5507 22.4869L24.0001 26.0374L26.19 28.2273L29.7405 24.6768L27.5507 22.4869ZM34.8395 22.0333H28.6456V25.1303H34.8395V22.0333ZM39.4849 17.3879C39.4849 19.9535 37.4051 22.0333 34.8395 22.0333V25.1303C39.1155 25.1303 42.5819 21.6639 42.5819 17.3879H39.4849ZM39.4849 11.1939V17.3879H42.5819V11.1939H39.4849ZM34.8395 6.54848C37.4051 6.54848 39.4849 8.62832 39.4849 11.1939H42.5819C42.5819 6.91791 39.1155 3.45152 34.8395 3.45152V6.54848ZM13.1607 6.54848H34.8395V3.45152H13.1607V6.54848ZM29.7405 22.4869C30.7293 23.4756 30.0063 25.1303 28.6456 25.1303V22.0333C27.2849 22.0333 26.5619 23.688 27.5507 24.6768L29.7405 22.4869ZM29.7405 24.6768C30.3453 24.0721 30.3453 23.0916 29.7405 22.4869L27.5507 24.6768C26.946 24.072 26.946 23.0916 27.5507 22.4869L29.7405 24.6768ZM21.8102 28.2273C23.0197 29.4368 24.9806 29.4368 26.19 28.2273L24.0001 26.0374L21.8102 28.2273ZM18.2597 22.4869C17.6675 23.0791 17.6425 24.0596 18.2597 24.6768L20.4496 22.4869C21.0667 23.1041 21.0418 24.0846 20.4496 24.6768L18.2597 22.4869ZM19.3546 25.1303C17.9751 25.1303 17.2842 23.4623 18.2597 22.4869L20.4496 24.6768C21.4251 23.7013 20.7342 22.0333 19.3546 22.0333V25.1303Z" fill="#E9EDF6" mask="url(#path-1-outside-1_101_659)"/>
</g>
<defs>
<filter id="filter0_d_101_659" x="0.772525" y="0.354454" width="46.4549" height="34.974" filterUnits="userSpaceOnUse" color-interpolation-filters="sRGB">
<feFlood flood-opacity="0" result="BackgroundImageFix"/>
<feColorMatrix in="SourceAlpha" type="matrix" values="0 0 0 0 0 0 0 0 0 0 0 0 0 0 0 0 0 0 127 0" result="hardAlpha"/>
<feOffset dy="1.54848"/>
<feGaussianBlur stdDeviation="2.32272"/>
<feComposite in2="hardAlpha" operator="out"/>
<feColorMatrix type="matrix" values="0 0 0 0 0.595069 0 0 0 0 0.635671 0 0 0 0 0.683333 0 0 0 0.13 0"/>
<feBlend mode="normal" in2="BackgroundImageFix" result="effect1_dropShadow_101_659"/>
<feBlend mode="normal" in="SourceGraphic" in2="effect1_dropShadow_101_659" result="shape"/>
</filter>
</defs>
</svg>
